PathFileType	4	(X/Y/Z)	/Users/visionmauri/Downloads/Videos/OAW11-top_Sports2D/OAW11-top_Sports2D_px_person00.trc
DataRate	CameraRate	NumFrames	NumMarkers	Units	OrigDataRate	OrigDataStartFrame	OrigNumFrames
30.0	30.0	11	22	m	30.0	270	2166
Frame#	Time	Hip			RHip			RKnee			RAnkle			RBigToe			RSmallToe			RHeel			LHip			LKnee			LAnkle			LBigToe			LSmallToe			LHeel			Neck			Head			Nose			RShoulder			RElbow			RWrist			LShoulder			LElbow			LWrist			
		X1	Y1	Z1	X2	Y2	Z2	X3	Y3	Z3	X4	Y4	Z4	X5	Y5	Z5	X6	Y6	Z6	X7	Y7	Z7	X8	Y8	Z8	X9	Y9	Z9	X10	Y10	Z10	X11	Y11	Z11	X12	Y12	Z12	X13	Y13	Z13	X14	Y14	Z14	X15	Y15	Z15	X16	Y16	Z16	X17	Y17	Z17	X18	Y18	Z18	X19	Y19	Z19	X20	Y20	Z20	X21	Y21	Z21	X22	Y22	Z22
270	9.004157043879907	506.6916611069478	627.9950277848016	0.0	489.83816402172926	629.7152620729435	0.0	489.84615958048	684.7464113314782	0.0	490.9064457087325	737.8825497922655	0.0	488.18035830305274	761.7711016078424	0.0	479.6785417408465	760.0845046733401	0.0	496.03516790525066	747.9780583176267	0.0	522.3634513060367	631.8806966168523	0.0	517.5917637171299	686.4348723250322	0.0	513.7753977710868	738.8826623846669	0.0	512.781195968758	759.3848788827463	0.0	521.1451947553663	758.3482062854431	0.0	512.5615216379921	748.3585319384115	0.0	512.2949562690756	541.4076754694406	0.0	513.845480164837	512.6989007411443	0.0	512.0511689255555	529.1525751068034	0.0	487.8228546773576	550.5896284793992	0.0	470.6212400898852	596.0932004144322	0.0	458.59726996613614	633.511111244995	0.0	537.3234551581244	551.4511196654794	0.0	550.644400825507	597.1459260263921	0.0	558.5952040550814	635.8153471647692	0.0
271	9.037505773672056	506.7131389501446	628.6678772188754	0.0	490.07532281547066	630.7729674575451	0.0	490.05631433400885	685.9734098185052	0.0	490.7905553026189	741.9347761326783	0.0	488.6728894770466	763.8445981672163	0.0	479.655378243384	762.776739040841	0.0	495.31350712066825	752.7796368254415	0.0	522.2264468243746	632.2421675119188	0.0	517.5833081324938	687.1641951459684	0.0	513.7825033890558	738.8538059789869	0.0	513.033927862359	759.5668049922787	0.0	520.7733665743651	758.374387975583	0.0	512.7686711413467	748.6886682167757	0.0	512.2922991487002	542.0709225579138	0.0	513.8417416340292	513.1176629533144	0.0	511.9703269496549	531.3302634623903	0.0	487.59426011994026	551.3459336432635	0.0	470.57899096339077	596.4758292271492	0.0	458.38774073169526	634.1827611916107	0.0	537.164198251603	551.7440159995127	0.0	550.8505557427342	597.4873253352644	0.0	559.5378843904715	636.1828938524718	0.0
272	9.070854503464203	506.5621469707001	629.6389618546303	0.0	490.04922862978907	631.9808627637182	0.0	490.1477100607146	687.199365475291	0.0	490.742257451515	744.7745265124256	0.0	489.2114034226005	765.5321464832498	0.0	480.0562591316022	764.6272453785127	0.0	493.7994091367165	755.6188846400181	0.0	521.9389645931008	633.528456169236	0.0	517.5173024898136	688.7640950462629	0.0	513.6905169474303	738.843401719931	0.0	512.9853521805427	759.5738535694246	0.0	520.7147724664682	758.3774153415482	0.0	512.2251863409489	748.6685046901529	0.0	512.2243409289016	543.4853049644036	0.0	513.7797469373932	513.9950411113884	0.0	511.9599593886871	533.7913242569709	0.0	487.1222447757137	552.3538740392843	0.0	470.4358326928553	597.2248298272268	0.0	458.5421833156756	634.450400873195	0.0	537.059582569602	552.6896082476385	0.0	551.0024746448727	598.2822938690726	0.0	559.9587947177522	636.9718693697641	0.0
273	9.104203233256351	506.41244906797044	630.6273791735023	0.0	489.9230095586617	632.8228136157608	0.0	490.1846904092063	688.0020665427313	0.0	490.7362375678484	745.8537597108206	0.0	490.46374995474906	766.495248651832	0.0	481.1300095327458	765.5149677093143	0.0	492.15370893365144	756.4110208394104	0.0	521.7372567769587	635.069989752456	0.0	517.3612614290762	690.202519281118	0.0	513.5039684965749	738.9564625618783	0.0	512.6803862525206	759.5534939999598	0.0	520.7834584866555	758.4526434534627	0.0	511.4696536347793	748.5920295594476	0.0	511.9597147703906	544.7214074393124	0.0	513.515398718162	514.9649822633058	0.0	512.0019213132698	535.5780268163653	0.0	486.5923035389832	553.5066041601096	0.0	470.103204911978	598.3448958127027	0.0	458.49419247864626	635.0256081758871	0.0	536.8876040254361	554.1112043667406	0.0	551.1290537325698	599.057403762783	0.0	559.8015020685633	637.6456451356507	0.0
274	9.137551963048498	506.21833153243676	631.3237375465721	0.0	489.64083154238534	632.9595357834131	0.0	490.10741530824504	688.2213640754347	0.0	490.7296937595277	746.0394273533504	0.0	491.8591816691104	767.0973837662871	0.0	482.0674862258646	766.0866022972218	0.0	491.31896284339246	756.5076465463417	0.0	521.6153698391998	635.746275869371	0.0	517.3385700010988	690.6538905071743	0.0	513.4402357615841	739.175864730114	0.0	512.4800959096449	759.8411443366901	0.0	520.9094339333274	758.6597904817805	0.0	511.2137517333876	748.8121811753267	0.0	511.5125167468845	546.0905646629058	0.0	512.9942471041379	516.164396274071	0.0	512.0392927616593	537.3651437700859	0.0	486.0539314872347	554.5646734494117	0.0	469.5879955917939	599.3732450914333	0.0	457.8386064071858	636.0582836943428	0.0	536.4655489462663	555.4554814123322	0.0	551.1256506645597	599.3861138776922	0.0	559.2877068444382	637.7395799171919	0.0
275	9.170900692840647	505.80412819561604	631.8722402691288	0.0	489.09358173197234	632.7665662618833	0.0	489.9407417609574	688.4212537627378	0.0	490.6471264589706	746.738303688424	0.0	492.212017767197	768.3614658867411	0.0	481.974198145558	767.3143818300937	0.0	491.51303922985295	757.4887083853152	0.0	521.3919176549705	635.4709427908064	0.0	517.4201452766617	690.5848042988181	0.0	513.530785800934	739.2191607696857	0.0	512.6786974951954	760.3877557139269	0.0	521.0423160700961	758.8349119805929	0.0	511.38868410888614	749.0361699515942	0.0	510.9356856239106	548.1870683489145	0.0	512.2663055738852	517.1283929666789	0.0	511.7601405220024	538.9200668946168	0.0	485.4616208730564	555.4800643235328	0.0	468.9210601054477	600.1152273490987	0.0	456.77312633513475	637.1068750338169	0.0	535.7769420241654	556.3943075504209	0.0	550.8839998463948	599.587542353546	0.0	558.6561079592408	637.5463265862963	0.0
276	9.204249422632795	505.1966235425652	632.8180306123301	0.0	488.4697973842814	633.313701631287	0.0	489.7514435729954	689.5090624397778	0.0	490.47553863882104	748.2721301802868	0.0	491.619577606873	770.46579473087	0.0	481.28621439952894	769.3335953469975	0.0	492.03775092770303	759.3228251021284	0.0	520.9665528195792	635.6224294074311	0.0	517.263590742768	691.0867443682777	0.0	513.5563825637156	738.7379787414551	0.0	513.1065178750563	760.7775211506438	0.0	521.1418940201072	758.7437141831216	0.0	511.2348510921018	748.1830742208523	0.0	510.1925291536437	550.2322309011256	0.0	511.46115726943697	517.3121109184204	0.0	510.7543022798683	539.2570687496855	0.0	484.7700819687917	556.4875351655148	0.0	468.10770047115716	600.8812906566582	0.0	455.7198922206307	638.0081410139454	0.0	534.9562327294302	557.2416642851767	0.0	550.4898785538277	600.3237998547862	0.0	557.9234989352669	637.7941751112774	0.0
277	9.237598152424942	504.5527792062833	634.310449665367	0.0	487.97168374219564	635.043203439771	0.0	489.4839322496463	691.5543242663225	0.0	490.32875506465297	749.9747969405176	0.0	490.9790464614091	772.5420837150684	0.0	480.88061955943624	771.3843629762266	0.0	492.3052930456981	760.808214075901	0.0	520.3363566678499	637.183736388175	0.0	516.8191382352877	692.5199715314399	0.0	513.445838264487	737.8096269875964	0.0	513.3762331098874	760.8628018233454	0.0	521.3520301009819	758.419203964651	0.0	510.4561864630873	745.9075943020507	0.0	509.2764768100976	551.0951646835788	0.0	510.6700145884225	517.1211519464667	0.0	509.26553789454954	538.9003714400724	0.0	483.94470739325993	557.5748567256114	0.0	467.27257684861166	601.8918444662049	0.0	454.8747267782028	638.9409618295076	0.0	534.1303816190359	558.2028265796826	0.0	550.044870736324	601.5833706630045	0.0	556.9988272373892	638.7932476408272	0.0
278	9.27094688221709	503.8229365876687	635.6914255641213	0.0	487.303924981345	636.9080735300314	0.0	488.96118907457253	693.5644798266388	0.0	490.29028452406334	751.3352727556381	0.0	490.6662955115909	773.8967243238367	0.0	480.8280181407169	772.7534705925549	0.0	492.4078715840873	761.3748127430943	0.0	519.5212042052725	639.2174574350407	0.0	516.4415290983067	694.1950780790313	0.0	513.3441619659563	736.7603953491489	0.0	513.4042413535603	760.9040635730504	0.0	521.7055324496743	758.0967882370704	0.0	509.68655611720754	743.2035864328807	0.0	508.32505137424613	550.797686248716	0.0	509.8152806732762	516.916474701946	0.0	507.9582196734167	538.4198809000645	0.0	482.9613025167991	558.3476192292162	0.0	466.4906570396954	602.9616718577372	0.0	454.09624945244116	639.9787078159206	0.0	533.3590240400368	558.7656590764126	0.0	549.3668408043842	602.6878555788678	0.0	555.7503128603918	640.1865927741652	0.0
279	9.304295612009238	502.89049719921763	636.3636760700094	0.0	486.1160510768369	637.8197775544699	0.0	488.1647066683433	694.818212445793	0.0	490.3139630184469	752.2278124387365	0.0	490.6071977106597	774.5989496370137	0.0	480.8630333825144	773.3224237934878	0.0	492.5871943821705	761.3982131357857	0.0	518.6440019621785	640.4100896710064	0.0	516.3812975855893	695.459933863457	0.0	513.3720834611858	735.5608827710196	0.0	513.3377664625533	760.9233665612217	0.0	521.9790133787214	757.8382955257163	0.0	509.5831831978828	740.7687435217472	0.0	507.3836940105297	550.097794519053	0.0	508.71675484518875	516.3938471471935	0.0	506.89805952678813	537.4350693919146	0.0	481.85671494915005	558.5517958820643	0.0	465.55699324767335	603.7737123016165	0.0	453.17426340664895	640.9391667226773	0.0	532.6010624379842	558.5572117154687	0.0	548.1909469505874	603.2354905801195	0.0	554.1353308397329	641.5138525233513	0.0
280	9.337644341801386	501.8979632277441	636.4913803652993	0.0	484.7066478964003	638.0818499451102	0.0	487.351211328145	695.6917295146768	0.0	490.341115546866	752.5571568841498	0.0	490.7017284950482	775.0499215619602	0.0	480.96457408933315	773.4359072634718	0.0	492.9064904940277	761.2037051181119	0.0	517.949973252655	640.8180912032674	0.0	516.5977110216992	696.3662656329888	0.0	513.5236836524163	734.1104788483367	0.0	513.239287293683	760.6049282675389	0.0	522.0195679962302	757.4301002852901	0.0	510.03406521666	738.5042918352401	0.0	506.2981723689359	549.5784836944541	0.0	507.3746477340399	515.4036987252576	0.0	505.62091954168153	536.222609286139	0.0	480.69882778635116	558.2352341815348	0.0	464.3666545477327	604.1639443838457	0.0	452.18734943966945	641.6252636464164	0.0	531.7214571834797	557.9341872319776	0.0	546.572420069981	603.4183304588529	0.0	552.3944445734585	642.573833765973	0.0
